<?xml version="1.0" encoding="UTF-8"?>
<!DOCTYPE svg PUBLIC "-//W3C//DTD SVG 1.1//EN" "http://www.w3.org/Graphics/SVG/1.1/DTD/svg11.dtd">
<!-- Creator: CorelDRAW -->
<svg xmlns="http://www.w3.org/2000/svg" xml:space="preserve" width="8.26772in" height="11.6929in" version="1.1" style="shape-rendering:geometricPrecision; text-rendering:geometricPrecision; image-rendering:optimizeQuality; fill-rule:evenodd; clip-rule:evenodd"
viewBox="0 0 8267.72 11692.91"
 xmlns:xlink="http://www.w3.org/1999/xlink"
 xmlns:xodm="http://www.corel.com/coreldraw/odm/2003">
 <defs>
  <style type="text/css">
   <![CDATA[
    .fil0 {fill:#282829}
   ]]>
  </style>
 </defs>
 <g id="Layer_x0020_1">
  <metadata id="CorelCorpID_0Corel-Layer"/>
  <g id="_2475357188576">
   <path class="fil0" d="M2935.85 1880.58c-655.25,1138.75 -354.34,2287.53 401.68,3287.43 655.35,866.76 782.3,1310.74 813.96,1722.97l-570.84 -10.5c-370.55,-576.45 -1839.76,-434.68 -1934.44,-1215.68 0,0 412.28,222.01 697.7,222.01 0,0 -1247.38,-475.68 -1067.62,-1775.82 0,0 190.26,644.75 581.34,845.61 0,0 -697.56,-919.67 -359.33,-1722.97 0,0 73.91,697.56 475.64,1120.43 0,0 -560.29,-1014.77 137.41,-1934.43 0,0 -222.06,888.06 84.56,1353.09 0,0 -317.12,-1374.2 739.95,-1892.13zm2216.44 3932.56c0,0 -105.52,-319.33 -332.95,-297.7 0,0 159.71,173.24 124.51,259.86l208.44 37.84zm220.39 -3932.56c655.2,1138.75 354.24,2287.53 -401.73,3287.43 -19.76,26.09 -38.94,51.85 -57.74,77.17 247.67,202.93 595.97,686.72 238.8,950.74 -167.48,-758.61 -949.26,98.8 -995.01,695.06l570.84 -10.5c404.41,-629.11 1840.04,-436.88 1934.43,-1215.68 0,0 -412.23,222.01 -697.65,222.01 0,0 1247.39,-475.68 1067.63,-1775.82 0,0 -190.31,644.75 -581.39,845.61 0,0 697.6,-919.67 359.37,-1722.97 0,0 -73.96,697.56 -475.63,1120.43 0,0 560.24,-1014.77 -137.46,-1934.43 0,0 222.01,888.06 -84.51,1353.09 0,0 317.07,-1374.2 -739.95,-1892.13z"/>
   <polygon class="fil0" points="1808.72,6900.39 1981.26,6727.85 6271.22,6727.85 6469.54,6926.17 "/>
   <path class="fil0" d="M1732.84 6968.62l4797.85 0c0,0 -347.52,347.83 -252.13,501.18l-4280.3 25.21c0,0 -33.49,-301.42 -265.42,-526.39z"/>
   <path class="fil0" d="M2018.58 7587.48l4237.21 0 0 208.01 876.98 0 0 -23.74 101.92 0 0 23.74 0 223.55 0 23.74 -101.92 0 0 -23.74 -876.98 0 0 1639.04 -352.28 0 0 154.68 -432.28 0 0 -154.68 -2690.26 0 0 154.68 -432.28 0 0 -154.68 -330.12 0 0 -1639.04 -889.3 0 0 23.74 -101.92 0 0 -23.74 0 -223.55 0 -23.74 101.92 0 0 23.74 889.3 0 0 -208.01zm5353.14 184.27l-101.92 0 0 271.03 101.92 0 0 -271.03zm208.54 0l-101.92 0 0 271.03 101.92 0 0 -271.03zm130.46 0l-101.92 0 0 271.03 101.92 0 0 -271.03zm223.4 0l-101.92 0 0 271.03 101.92 0 0 -271.03zm131.46 0l-101.92 0 0 271.03 101.92 0 0 -271.03zm-257.12 0l-69.21 0 0 271.03 69.21 0 0 -271.03zm-345.9 0l-69.16 0 0 271.03 69.16 0 0 -271.03zm-6572.22 0l101.92 0 0 271.03 -101.92 0 0 -271.03zm-208.54 0l101.92 0 0 271.03 -101.92 0 0 -271.03zm-130.46 0l101.92 0 0 271.03 -101.92 0 0 -271.03zm-223.41 0l101.92 0 0 271.03 -101.92 0 0 -271.03zm-131.41 0l101.92 0 0 271.03 -101.92 0 0 -271.03zm257.12 0l69.16 0 0 271.03 -69.16 0 0 -271.03zm345.85 0l69.21 0 0 271.03 -69.21 0 0 -271.03zm2633.19 397.46l629.93 0 0 194.15 -421.15 0 0 474.91 406.23 0 0 191.17 -618.27 0 3.26 -860.24zm1412.47 0l-629.93 0 0 194.15 421.15 0 0 474.91 -406.23 0 0 191.17 618.27 0 -3.26 -860.24z"/>
  </g>
 </g>
</svg>
