<svg xmlns="http://www.w3.org/2000/svg" xmlns:xlink="http://www.w3.org/1999/xlink" width="180" zoomAndPan="magnify" viewBox="0 0 135 37.5" height="50" preserveAspectRatio="xMidYMid meet" version="1.0"><defs><g/><clipPath id="ca997b60a9"><path d="M 0.886719 0 L 134.109375 0 L 134.109375 37.007812 L 0.886719 37.007812 Z M 0.886719 0 " clip-rule="nonzero"/></clipPath></defs><g clip-path="url(#ca997b60a9)"><path fill="#ffffff" d="M 0.886719 0 L 134.113281 0 L 134.113281 37.007812 L 0.886719 37.007812 Z M 0.886719 0 " fill-opacity="1" fill-rule="nonzero"/><path fill="#ffffff" d="M 0.886719 0 L 134.113281 0 L 134.113281 37.007812 L 0.886719 37.007812 Z M 0.886719 0 " fill-opacity="1" fill-rule="nonzero"/></g><path fill="#282829" d="M 12.582031 3.714844 C 10.117188 7.96875 11.25 12.257812 14.089844 15.992188 C 16.550781 19.230469 17.027344 20.886719 17.148438 22.425781 L 15.003906 22.386719 C 13.609375 20.234375 8.089844 20.761719 7.734375 17.847656 C 7.734375 17.847656 9.285156 18.675781 10.355469 18.675781 C 10.355469 18.675781 5.667969 16.898438 6.34375 12.042969 C 6.34375 12.042969 7.058594 14.453125 8.527344 15.203125 C 8.527344 15.203125 5.910156 11.769531 7.179688 8.769531 C 7.179688 8.769531 7.457031 11.371094 8.964844 12.953125 C 8.964844 12.953125 6.859375 9.164062 9.484375 5.726562 C 9.484375 5.726562 8.648438 9.042969 9.800781 10.78125 C 9.800781 10.78125 8.609375 5.648438 12.582031 3.714844 Z M 20.90625 18.402344 C 20.90625 18.402344 20.511719 17.207031 19.65625 17.289062 C 19.65625 17.289062 20.257812 17.9375 20.125 18.257812 Z M 21.734375 3.714844 C 24.199219 7.96875 23.066406 12.257812 20.226562 15.992188 C 20.152344 16.089844 20.082031 16.183594 20.007812 16.28125 C 20.941406 17.039062 22.25 18.84375 20.90625 19.832031 C 20.277344 16.996094 17.339844 20.199219 17.167969 22.425781 L 19.3125 22.386719 C 20.832031 20.039062 26.226562 20.753906 26.582031 17.847656 C 26.582031 17.847656 25.03125 18.675781 23.960938 18.675781 C 23.960938 18.675781 28.644531 16.898438 27.972656 12.042969 C 27.972656 12.042969 27.257812 14.453125 25.785156 15.203125 C 25.785156 15.203125 28.40625 11.769531 27.136719 8.769531 C 27.136719 8.769531 26.859375 11.371094 25.351562 12.953125 C 25.351562 12.953125 27.453125 9.164062 24.832031 5.726562 C 24.832031 5.726562 25.667969 9.042969 24.515625 10.78125 C 24.515625 10.78125 25.707031 5.648438 21.734375 3.714844 Z M 21.734375 3.714844 " fill-opacity="1" fill-rule="evenodd"/><path fill="#282829" d="M 8.34375 22.460938 L 8.992188 21.816406 L 25.113281 21.816406 L 25.855469 22.558594 Z M 8.34375 22.460938 " fill-opacity="1" fill-rule="evenodd"/><path fill="#282829" d="M 8.058594 22.714844 L 26.085938 22.714844 C 26.085938 22.714844 24.78125 24.015625 25.140625 24.585938 L 9.058594 24.683594 C 9.058594 24.683594 8.933594 23.554688 8.058594 22.714844 Z M 8.058594 22.714844 " fill-opacity="1" fill-rule="evenodd"/><path fill="#282829" d="M 9.132812 25.027344 L 25.054688 25.027344 L 25.054688 25.804688 L 28.347656 25.804688 L 28.347656 25.714844 L 28.730469 25.714844 L 28.730469 26.726562 L 28.347656 26.726562 L 28.347656 26.640625 L 25.054688 26.640625 L 25.054688 32.761719 L 23.730469 32.761719 L 23.730469 33.335938 L 22.105469 33.335938 L 22.105469 32.761719 L 12 32.761719 L 12 33.335938 L 10.375 33.335938 L 10.375 32.761719 L 9.132812 32.761719 L 9.132812 26.640625 L 5.792969 26.640625 L 5.792969 26.726562 L 5.410156 26.726562 L 5.410156 25.714844 L 5.792969 25.714844 L 5.792969 25.804688 L 9.132812 25.804688 Z M 29.246094 25.714844 L 28.863281 25.714844 L 28.863281 26.726562 L 29.246094 26.726562 Z M 30.03125 25.714844 L 29.648438 25.714844 L 29.648438 26.726562 L 30.03125 26.726562 Z M 30.519531 25.714844 L 30.136719 25.714844 L 30.136719 26.726562 L 30.519531 26.726562 Z M 31.359375 25.714844 L 30.976562 25.714844 L 30.976562 26.726562 L 31.359375 26.726562 Z M 31.851562 25.714844 L 31.46875 25.714844 L 31.46875 26.726562 L 31.851562 26.726562 Z M 30.886719 25.714844 L 30.628906 25.714844 L 30.628906 26.726562 L 30.886719 26.726562 Z M 29.585938 25.714844 L 29.328125 25.714844 L 29.328125 26.726562 L 29.585938 26.726562 Z M 4.894531 25.714844 L 5.277344 25.714844 L 5.277344 26.726562 L 4.894531 26.726562 Z M 4.113281 25.714844 L 4.496094 25.714844 L 4.496094 26.726562 L 4.113281 26.726562 Z M 3.621094 25.714844 L 4.003906 25.714844 L 4.003906 26.726562 L 3.621094 26.726562 Z M 2.78125 25.714844 L 3.164062 25.714844 L 3.164062 26.726562 L 2.78125 26.726562 Z M 2.289062 25.714844 L 2.671875 25.714844 L 2.671875 26.726562 L 2.289062 26.726562 Z M 3.253906 25.714844 L 3.515625 25.714844 L 3.515625 26.726562 L 3.253906 26.726562 Z M 4.554688 25.714844 L 4.8125 25.714844 L 4.8125 26.726562 L 4.554688 26.726562 Z M 14.445312 27.199219 L 16.8125 27.199219 L 16.8125 27.925781 L 15.230469 27.925781 L 15.230469 29.699219 L 16.757812 29.699219 L 16.757812 30.414062 L 14.433594 30.414062 Z M 19.753906 27.199219 L 17.386719 27.199219 L 17.386719 27.925781 L 18.96875 27.925781 L 18.96875 29.699219 L 17.441406 29.699219 L 17.441406 30.414062 L 19.765625 30.414062 Z M 19.753906 27.199219 " fill-opacity="1" fill-rule="evenodd"/><g fill="#282829" fill-opacity="1"><g transform="translate(42.661164, 16.599157)"><g><path d="M 7.234375 0 L 5.671875 0 L 5.09375 -1.734375 L 2.21875 -1.734375 L 1.640625 0 L 0.109375 0 L 2.71875 -7.546875 L 4.625 -7.546875 Z M 3.578125 -5.96875 L 2.609375 -2.984375 L 4.6875 -2.984375 L 3.71875 -5.96875 Z M 3.578125 -5.96875 "/></g></g></g><g fill="#282829" fill-opacity="1"><g transform="translate(50.00774, 16.599157)"><g><path d="M 0.984375 0 L 0.984375 -7.546875 L 4 -7.546875 C 4.78125 -7.546875 5.367188 -7.363281 5.765625 -7 C 6.171875 -6.644531 6.375 -6.148438 6.375 -5.515625 C 6.375 -5.054688 6.253906 -4.679688 6.015625 -4.390625 C 5.785156 -4.097656 5.441406 -3.875 4.984375 -3.71875 L 4.984375 -3.609375 C 5.222656 -3.503906 5.414062 -3.347656 5.5625 -3.140625 C 5.707031 -2.941406 5.84375 -2.644531 5.96875 -2.25 L 6.71875 0 L 5.1875 0 L 4.453125 -2.25 C 4.378906 -2.476562 4.296875 -2.65625 4.203125 -2.78125 C 4.109375 -2.90625 3.988281 -2.992188 3.84375 -3.046875 C 3.695312 -3.109375 3.503906 -3.140625 3.265625 -3.140625 L 2.46875 -3.140625 L 2.46875 0 Z M 3.828125 -4.328125 C 4.546875 -4.328125 4.90625 -4.660156 4.90625 -5.328125 C 4.90625 -6.015625 4.546875 -6.359375 3.828125 -6.359375 L 2.46875 -6.359375 L 2.46875 -4.328125 Z M 3.828125 -4.328125 "/></g></g></g><g fill="#282829" fill-opacity="1"><g transform="translate(57.055298, 16.599157)"><g><path d="M 0.984375 0 L 0.984375 -7.546875 L 2.46875 -7.546875 L 2.46875 -4.46875 L 2.640625 -4.46875 L 5.15625 -7.546875 L 6.671875 -7.546875 L 6.671875 -7.40625 L 3.90625 -3.984375 L 6.96875 -0.125 L 6.96875 0 L 5.28125 0 L 2.640625 -3.25 L 2.46875 -3.25 L 2.46875 0 Z M 0.984375 0 "/></g></g></g><g fill="#282829" fill-opacity="1"><g transform="translate(64.020367, 16.599157)"><g/></g></g><g fill="#282829" fill-opacity="1"><g transform="translate(66.510474, 16.599157)"><g><path d="M 4.109375 0.109375 C 3.421875 0.109375 2.8125 -0.03125 2.28125 -0.3125 C 1.75 -0.59375 1.332031 -1.019531 1.03125 -1.59375 C 0.738281 -2.175781 0.59375 -2.898438 0.59375 -3.765625 C 0.59375 -4.628906 0.738281 -5.347656 1.03125 -5.921875 C 1.332031 -6.503906 1.75 -6.9375 2.28125 -7.21875 C 2.8125 -7.507812 3.421875 -7.65625 4.109375 -7.65625 C 4.796875 -7.65625 5.398438 -7.515625 5.921875 -7.234375 C 6.453125 -6.953125 6.867188 -6.519531 7.171875 -5.9375 C 7.472656 -5.351562 7.625 -4.628906 7.625 -3.765625 C 7.625 -2.898438 7.472656 -2.175781 7.171875 -1.59375 C 6.867188 -1.019531 6.453125 -0.59375 5.921875 -0.3125 C 5.398438 -0.03125 4.796875 0.109375 4.109375 0.109375 Z M 4.109375 -1.1875 C 4.742188 -1.1875 5.226562 -1.390625 5.5625 -1.796875 C 5.90625 -2.210938 6.078125 -2.867188 6.078125 -3.765625 C 6.078125 -4.671875 5.90625 -5.328125 5.5625 -5.734375 C 5.226562 -6.148438 4.742188 -6.359375 4.109375 -6.359375 C 3.460938 -6.359375 2.96875 -6.148438 2.625 -5.734375 C 2.289062 -5.328125 2.125 -4.671875 2.125 -3.765625 C 2.125 -2.867188 2.289062 -2.210938 2.625 -1.796875 C 2.96875 -1.390625 3.460938 -1.1875 4.109375 -1.1875 Z M 4.109375 -1.1875 "/></g></g></g><g fill="#282829" fill-opacity="1"><g transform="translate(74.723172, 16.599157)"><g><path d="M 5.765625 -7.546875 L 5.765625 -6.296875 L 2.46875 -6.296875 L 2.46875 -4.296875 L 5.453125 -4.296875 L 5.453125 -3.0625 L 2.46875 -3.0625 L 2.46875 0 L 0.984375 0 L 0.984375 -7.546875 Z M 5.765625 -7.546875 "/></g></g></g><g fill="#282829" fill-opacity="1"><g transform="translate(80.816958, 16.599157)"><g/></g></g><g fill="#282829" fill-opacity="1"><g transform="translate(83.307064, 16.599157)"><g><path d="M 6.046875 -7.546875 L 6.046875 -6.28125 L 3.875 -6.28125 L 3.875 0 L 2.375 0 L 2.375 -6.28125 L 0.203125 -6.28125 L 0.203125 -7.546875 Z M 6.046875 -7.546875 "/></g></g></g><g fill="#282829" fill-opacity="1"><g transform="translate(89.555516, 16.599157)"><g><path d="M 0.984375 0 L 0.984375 -7.546875 L 4 -7.546875 C 4.78125 -7.546875 5.367188 -7.363281 5.765625 -7 C 6.171875 -6.644531 6.375 -6.148438 6.375 -5.515625 C 6.375 -5.054688 6.253906 -4.679688 6.015625 -4.390625 C 5.785156 -4.097656 5.441406 -3.875 4.984375 -3.71875 L 4.984375 -3.609375 C 5.222656 -3.503906 5.414062 -3.347656 5.5625 -3.140625 C 5.707031 -2.941406 5.84375 -2.644531 5.96875 -2.25 L 6.71875 0 L 5.1875 0 L 4.453125 -2.25 C 4.378906 -2.476562 4.296875 -2.65625 4.203125 -2.78125 C 4.109375 -2.90625 3.988281 -2.992188 3.84375 -3.046875 C 3.695312 -3.109375 3.503906 -3.140625 3.265625 -3.140625 L 2.46875 -3.140625 L 2.46875 0 Z M 3.828125 -4.328125 C 4.546875 -4.328125 4.90625 -4.660156 4.90625 -5.328125 C 4.90625 -6.015625 4.546875 -6.359375 3.828125 -6.359375 L 2.46875 -6.359375 L 2.46875 -4.328125 Z M 3.828125 -4.328125 "/></g></g></g><g fill="#282829" fill-opacity="1"><g transform="translate(96.603073, 16.599157)"><g><path d="M 2.46875 0 L 0.984375 0 L 0.984375 -7.546875 L 2.46875 -7.546875 Z M 2.46875 0 "/></g></g></g><g fill="#282829" fill-opacity="1"><g transform="translate(100.05725, 16.599157)"><g><path d="M 2.421875 0 L 0.984375 0 L 0.984375 -7.546875 L 2.6875 -7.546875 L 5.71875 -2.6875 L 5.84375 -2.703125 L 5.84375 -7.546875 L 7.28125 -7.546875 L 7.28125 0 L 5.75 0 L 2.546875 -5.1875 L 2.421875 -5.171875 Z M 2.421875 0 "/></g></g></g><g fill="#282829" fill-opacity="1"><g transform="translate(108.321503, 16.599157)"><g><path d="M 2.46875 0 L 0.984375 0 L 0.984375 -7.546875 L 2.46875 -7.546875 Z M 2.46875 0 "/></g></g></g><g fill="#282829" fill-opacity="1"><g transform="translate(111.77568, 16.599157)"><g><path d="M 6.046875 -7.546875 L 6.046875 -6.28125 L 3.875 -6.28125 L 3.875 0 L 2.375 0 L 2.375 -6.28125 L 0.203125 -6.28125 L 0.203125 -7.546875 Z M 6.046875 -7.546875 "/></g></g></g><g fill="#282829" fill-opacity="1"><g transform="translate(118.024131, 16.599157)"><g><path d="M 4.125 0 L 2.640625 0 L 2.640625 -2.953125 L 0.03125 -7.546875 L 1.640625 -7.546875 L 3.359375 -4.578125 L 3.484375 -4.578125 L 5.171875 -7.546875 L 6.734375 -7.546875 L 4.125 -2.953125 Z M 4.125 0 "/></g></g></g><g fill="#282829" fill-opacity="1"><g transform="translate(35.757125, 30.661656)"><g><path d="M 3.65625 0.109375 C 3.03125 0.109375 2.488281 -0.03125 2.03125 -0.3125 C 1.570312 -0.601562 1.21875 -1.035156 0.96875 -1.609375 C 0.71875 -2.191406 0.59375 -2.910156 0.59375 -3.765625 C 0.59375 -4.628906 0.738281 -5.347656 1.03125 -5.921875 C 1.332031 -6.503906 1.75 -6.9375 2.28125 -7.21875 C 2.8125 -7.507812 3.429688 -7.65625 4.140625 -7.65625 C 4.859375 -7.65625 5.472656 -7.519531 5.984375 -7.25 C 6.492188 -6.976562 6.851562 -6.578125 7.0625 -6.046875 L 5.96875 -5.390625 L 5.84375 -5.390625 C 5.6875 -5.734375 5.46875 -5.976562 5.1875 -6.125 C 4.90625 -6.28125 4.554688 -6.359375 4.140625 -6.359375 C 3.484375 -6.359375 2.984375 -6.148438 2.640625 -5.734375 C 2.296875 -5.328125 2.125 -4.671875 2.125 -3.765625 C 2.125 -2.859375 2.285156 -2.195312 2.609375 -1.78125 C 2.929688 -1.375 3.40625 -1.171875 4.03125 -1.171875 C 4.582031 -1.171875 4.984375 -1.289062 5.234375 -1.53125 C 5.492188 -1.769531 5.625 -2.132812 5.625 -2.625 L 5.625 -2.953125 L 3.84375 -2.953125 L 3.84375 -4.15625 L 7.109375 -4.15625 L 7.109375 0 L 5.6875 0 L 5.6875 -1.015625 L 5.578125 -1.03125 C 5.421875 -0.664062 5.1875 -0.382812 4.875 -0.1875 C 4.5625 0.0078125 4.15625 0.109375 3.65625 0.109375 Z M 3.65625 0.109375 "/></g></g></g><g fill="#282829" fill-opacity="1"><g transform="translate(43.619249, 30.661656)"><g><path d="M 4.109375 0.109375 C 3.421875 0.109375 2.8125 -0.03125 2.28125 -0.3125 C 1.75 -0.59375 1.332031 -1.019531 1.03125 -1.59375 C 0.738281 -2.175781 0.59375 -2.898438 0.59375 -3.765625 C 0.59375 -4.628906 0.738281 -5.347656 1.03125 -5.921875 C 1.332031 -6.503906 1.75 -6.9375 2.28125 -7.21875 C 2.8125 -7.507812 3.421875 -7.65625 4.109375 -7.65625 C 4.796875 -7.65625 5.398438 -7.515625 5.921875 -7.234375 C 6.453125 -6.953125 6.867188 -6.519531 7.171875 -5.9375 C 7.472656 -5.351562 7.625 -4.628906 7.625 -3.765625 C 7.625 -2.898438 7.472656 -2.175781 7.171875 -1.59375 C 6.867188 -1.019531 6.453125 -0.59375 5.921875 -0.3125 C 5.398438 -0.03125 4.796875 0.109375 4.109375 0.109375 Z M 4.109375 -1.1875 C 4.742188 -1.1875 5.226562 -1.390625 5.5625 -1.796875 C 5.90625 -2.210938 6.078125 -2.867188 6.078125 -3.765625 C 6.078125 -4.671875 5.90625 -5.328125 5.5625 -5.734375 C 5.226562 -6.148438 4.742188 -6.359375 4.109375 -6.359375 C 3.460938 -6.359375 2.96875 -6.148438 2.625 -5.734375 C 2.289062 -5.328125 2.125 -4.671875 2.125 -3.765625 C 2.125 -2.867188 2.289062 -2.210938 2.625 -1.796875 C 2.96875 -1.390625 3.460938 -1.1875 4.109375 -1.1875 Z M 4.109375 -1.1875 "/></g></g></g><g fill="#282829" fill-opacity="1"><g transform="translate(51.831947, 30.661656)"><g><path d="M 3.34375 0.109375 C 2.820312 0.109375 2.351562 0.046875 1.9375 -0.078125 C 1.53125 -0.210938 1.191406 -0.382812 0.921875 -0.59375 C 0.648438 -0.800781 0.441406 -1.03125 0.296875 -1.28125 L 1.125 -2.28125 L 1.25 -2.28125 C 1.476562 -1.945312 1.765625 -1.679688 2.109375 -1.484375 C 2.460938 -1.285156 2.875 -1.1875 3.34375 -1.1875 C 3.738281 -1.1875 4.035156 -1.269531 4.234375 -1.4375 C 4.441406 -1.601562 4.546875 -1.832031 4.546875 -2.125 C 4.546875 -2.300781 4.515625 -2.453125 4.453125 -2.578125 C 4.390625 -2.703125 4.28125 -2.804688 4.125 -2.890625 C 3.976562 -2.972656 3.773438 -3.046875 3.515625 -3.109375 L 2.546875 -3.328125 C 1.867188 -3.484375 1.363281 -3.738281 1.03125 -4.09375 C 0.695312 -4.457031 0.53125 -4.925781 0.53125 -5.5 C 0.53125 -5.925781 0.632812 -6.300781 0.84375 -6.625 C 1.0625 -6.945312 1.375 -7.195312 1.78125 -7.375 C 2.1875 -7.5625 2.675781 -7.65625 3.25 -7.65625 C 3.820312 -7.65625 4.316406 -7.578125 4.734375 -7.421875 C 5.148438 -7.265625 5.5 -7.03125 5.78125 -6.71875 L 5.046875 -5.703125 L 4.921875 -5.703125 C 4.703125 -5.929688 4.457031 -6.097656 4.1875 -6.203125 C 3.914062 -6.316406 3.601562 -6.375 3.25 -6.375 C 2.832031 -6.375 2.515625 -6.300781 2.296875 -6.15625 C 2.085938 -6.007812 1.984375 -5.8125 1.984375 -5.5625 C 1.984375 -5.320312 2.054688 -5.128906 2.203125 -4.984375 C 2.359375 -4.847656 2.617188 -4.738281 2.984375 -4.65625 L 3.984375 -4.453125 C 4.710938 -4.296875 5.242188 -4.03125 5.578125 -3.65625 C 5.910156 -3.289062 6.078125 -2.8125 6.078125 -2.21875 C 6.078125 -1.75 5.972656 -1.335938 5.765625 -0.984375 C 5.566406 -0.640625 5.257812 -0.367188 4.84375 -0.171875 C 4.4375 0.015625 3.9375 0.109375 3.34375 0.109375 Z M 3.34375 0.109375 "/></g></g></g><g fill="#282829" fill-opacity="1"><g transform="translate(58.30724, 30.661656)"><g><path d="M 3.890625 -7.546875 C 4.429688 -7.546875 4.894531 -7.445312 5.28125 -7.25 C 5.664062 -7.050781 5.953125 -6.769531 6.140625 -6.40625 C 6.335938 -6.050781 6.4375 -5.640625 6.4375 -5.171875 C 6.4375 -4.703125 6.335938 -4.289062 6.140625 -3.9375 C 5.953125 -3.582031 5.664062 -3.304688 5.28125 -3.109375 C 4.894531 -2.910156 4.429688 -2.8125 3.890625 -2.8125 L 2.46875 -2.8125 L 2.46875 0 L 0.984375 0 L 0.984375 -7.546875 Z M 3.703125 -3.984375 C 4.523438 -3.984375 4.9375 -4.378906 4.9375 -5.171875 C 4.9375 -5.960938 4.523438 -6.359375 3.703125 -6.359375 L 2.46875 -6.359375 L 2.46875 -3.984375 Z M 3.703125 -3.984375 "/></g></g></g><g fill="#282829" fill-opacity="1"><g transform="translate(65.194972, 30.661656)"><g><path d="M 2.46875 -3.3125 L 2.46875 -1.25 L 6.078125 -1.25 L 6.078125 0 L 0.984375 0 L 0.984375 -7.546875 L 5.984375 -7.546875 L 5.984375 -6.296875 L 2.46875 -6.296875 L 2.46875 -4.53125 L 5.546875 -4.53125 L 5.546875 -3.3125 Z M 2.46875 -3.3125 "/></g></g></g><g fill="#282829" fill-opacity="1"><g transform="translate(71.675426, 30.661656)"><g><path d="M 2.46875 -7.546875 L 2.46875 -1.25 L 5.859375 -1.25 L 5.859375 0 L 0.984375 0 L 0.984375 -7.546875 Z M 2.46875 -7.546875 "/></g></g></g><g fill="#282829" fill-opacity="1"><g transform="translate(77.779523, 30.661656)"><g/></g></g><g fill="#282829" fill-opacity="1"><g transform="translate(80.269629, 30.661656)"><g><path d="M 2.34375 0 L 0.984375 0 L 0.984375 -7.546875 L 2.921875 -7.546875 L 4.84375 -2 L 4.953125 -2 L 6.84375 -7.546875 L 8.75 -7.546875 L 8.75 0 L 7.328125 0 L 7.328125 -4.984375 L 7.203125 -5 L 5.46875 0 L 4.21875 0 L 2.46875 -5 L 2.34375 -4.984375 Z M 2.34375 0 "/></g></g></g><g fill="#282829" fill-opacity="1"><g transform="translate(89.998041, 30.661656)"><g><path d="M 2.46875 0 L 0.984375 0 L 0.984375 -7.546875 L 2.46875 -7.546875 Z M 2.46875 0 "/></g></g></g><g fill="#282829" fill-opacity="1"><g transform="translate(93.452218, 30.661656)"><g><path d="M 2.421875 0 L 0.984375 0 L 0.984375 -7.546875 L 2.6875 -7.546875 L 5.71875 -2.6875 L 5.84375 -2.703125 L 5.84375 -7.546875 L 7.28125 -7.546875 L 7.28125 0 L 5.75 0 L 2.546875 -5.1875 L 2.421875 -5.171875 Z M 2.421875 0 "/></g></g></g><g fill="#282829" fill-opacity="1"><g transform="translate(101.71647, 30.661656)"><g><path d="M 2.46875 0 L 0.984375 0 L 0.984375 -7.546875 L 2.46875 -7.546875 Z M 2.46875 0 "/></g></g></g><g fill="#282829" fill-opacity="1"><g transform="translate(105.170647, 30.661656)"><g><path d="M 3.34375 0.109375 C 2.820312 0.109375 2.351562 0.046875 1.9375 -0.078125 C 1.53125 -0.210938 1.191406 -0.382812 0.921875 -0.59375 C 0.648438 -0.800781 0.441406 -1.03125 0.296875 -1.28125 L 1.125 -2.28125 L 1.25 -2.28125 C 1.476562 -1.945312 1.765625 -1.679688 2.109375 -1.484375 C 2.460938 -1.285156 2.875 -1.1875 3.34375 -1.1875 C 3.738281 -1.1875 4.035156 -1.269531 4.234375 -1.4375 C 4.441406 -1.601562 4.546875 -1.832031 4.546875 -2.125 C 4.546875 -2.300781 4.515625 -2.453125 4.453125 -2.578125 C 4.390625 -2.703125 4.28125 -2.804688 4.125 -2.890625 C 3.976562 -2.972656 3.773438 -3.046875 3.515625 -3.109375 L 2.546875 -3.328125 C 1.867188 -3.484375 1.363281 -3.738281 1.03125 -4.09375 C 0.695312 -4.457031 0.53125 -4.925781 0.53125 -5.5 C 0.53125 -5.925781 0.632812 -6.300781 0.84375 -6.625 C 1.0625 -6.945312 1.375 -7.195312 1.78125 -7.375 C 2.1875 -7.5625 2.675781 -7.65625 3.25 -7.65625 C 3.820312 -7.65625 4.316406 -7.578125 4.734375 -7.421875 C 5.148438 -7.265625 5.5 -7.03125 5.78125 -6.71875 L 5.046875 -5.703125 L 4.921875 -5.703125 C 4.703125 -5.929688 4.457031 -6.097656 4.1875 -6.203125 C 3.914062 -6.316406 3.601562 -6.375 3.25 -6.375 C 2.832031 -6.375 2.515625 -6.300781 2.296875 -6.15625 C 2.085938 -6.007812 1.984375 -5.8125 1.984375 -5.5625 C 1.984375 -5.320312 2.054688 -5.128906 2.203125 -4.984375 C 2.359375 -4.847656 2.617188 -4.738281 2.984375 -4.65625 L 3.984375 -4.453125 C 4.710938 -4.296875 5.242188 -4.03125 5.578125 -3.65625 C 5.910156 -3.289062 6.078125 -2.8125 6.078125 -2.21875 C 6.078125 -1.75 5.972656 -1.335938 5.765625 -0.984375 C 5.566406 -0.640625 5.257812 -0.367188 4.84375 -0.171875 C 4.4375 0.015625 3.9375 0.109375 3.34375 0.109375 Z M 3.34375 0.109375 "/></g></g></g><g fill="#282829" fill-opacity="1"><g transform="translate(111.64594, 30.661656)"><g><path d="M 6.046875 -7.546875 L 6.046875 -6.28125 L 3.875 -6.28125 L 3.875 0 L 2.375 0 L 2.375 -6.28125 L 0.203125 -6.28125 L 0.203125 -7.546875 Z M 6.046875 -7.546875 "/></g></g></g><g fill="#282829" fill-opacity="1"><g transform="translate(117.894391, 30.661656)"><g><path d="M 0.984375 0 L 0.984375 -7.546875 L 4 -7.546875 C 4.78125 -7.546875 5.367188 -7.363281 5.765625 -7 C 6.171875 -6.644531 6.375 -6.148438 6.375 -5.515625 C 6.375 -5.054688 6.253906 -4.679688 6.015625 -4.390625 C 5.785156 -4.097656 5.441406 -3.875 4.984375 -3.71875 L 4.984375 -3.609375 C 5.222656 -3.503906 5.414062 -3.347656 5.5625 -3.140625 C 5.707031 -2.941406 5.84375 -2.644531 5.96875 -2.25 L 6.71875 0 L 5.1875 0 L 4.453125 -2.25 C 4.378906 -2.476562 4.296875 -2.65625 4.203125 -2.78125 C 4.109375 -2.90625 3.988281 -2.992188 3.84375 -3.046875 C 3.695312 -3.109375 3.503906 -3.140625 3.265625 -3.140625 L 2.46875 -3.140625 L 2.46875 0 Z M 3.828125 -4.328125 C 4.546875 -4.328125 4.90625 -4.660156 4.90625 -5.328125 C 4.90625 -6.015625 4.546875 -6.359375 3.828125 -6.359375 L 2.46875 -6.359375 L 2.46875 -4.328125 Z M 3.828125 -4.328125 "/></g></g></g><g fill="#282829" fill-opacity="1"><g transform="translate(124.941949, 30.661656)"><g><path d="M 4.125 0 L 2.640625 0 L 2.640625 -2.953125 L 0.03125 -7.546875 L 1.640625 -7.546875 L 3.359375 -4.578125 L 3.484375 -4.578125 L 5.171875 -7.546875 L 6.734375 -7.546875 L 4.125 -2.953125 Z M 4.125 0 "/></g></g></g></svg>