<svg xmlns="http://www.w3.org/2000/svg" xmlns:xlink="http://www.w3.org/1999/xlink" width="180" zoomAndPan="magnify" viewBox="0 0 135 37.5" height="50" preserveAspectRatio="xMidYMid meet" version="1.0"><defs><g/></defs><path fill="#ffffff" d="M 12.503906 3.703125 C 10.058594 7.953125 11.179688 12.238281 14 15.96875 C 16.445312 19.203125 16.917969 20.859375 17.039062 22.394531 L 14.90625 22.355469 C 13.523438 20.207031 8.042969 20.734375 7.691406 17.820312 C 7.691406 17.820312 9.230469 18.648438 10.292969 18.648438 C 10.292969 18.648438 5.640625 16.875 6.3125 12.023438 C 6.3125 12.023438 7.019531 14.429688 8.480469 15.179688 C 8.480469 15.179688 5.878906 11.75 7.140625 8.75 C 7.140625 8.75 7.414062 11.355469 8.914062 12.929688 C 8.914062 12.929688 6.824219 9.144531 9.425781 5.714844 C 9.425781 5.714844 8.597656 9.027344 9.742188 10.761719 C 9.742188 10.761719 8.558594 5.636719 12.503906 3.703125 Z M 20.769531 18.375 C 20.769531 18.375 20.378906 17.183594 19.527344 17.265625 C 19.527344 17.265625 20.125 17.910156 19.992188 18.234375 Z M 21.59375 3.703125 C 24.039062 7.953125 22.914062 12.238281 20.09375 15.96875 C 20.019531 16.066406 19.949219 16.160156 19.878906 16.257812 C 20.804688 17.011719 22.101562 18.816406 20.769531 19.804688 C 20.144531 16.972656 17.226562 20.171875 17.058594 22.394531 L 19.1875 22.355469 C 20.695312 20.007812 26.050781 20.726562 26.402344 17.820312 C 26.402344 17.820312 24.867188 18.648438 23.800781 18.648438 C 23.800781 18.648438 28.453125 16.875 27.785156 12.023438 C 27.785156 12.023438 27.074219 14.429688 25.617188 15.179688 C 25.617188 15.179688 28.21875 11.75 26.957031 8.75 C 26.957031 8.75 26.679688 11.355469 25.179688 12.929688 C 25.179688 12.929688 27.273438 9.144531 24.667969 5.714844 C 24.667969 5.714844 25.496094 9.027344 24.351562 10.761719 C 24.351562 10.761719 25.535156 5.636719 21.59375 3.703125 Z M 21.59375 3.703125 " fill-opacity="1" fill-rule="evenodd"/><path fill="#ffffff" d="M 8.296875 22.429688 L 8.941406 21.789062 L 24.945312 21.789062 L 25.683594 22.527344 Z M 8.296875 22.429688 " fill-opacity="1" fill-rule="evenodd"/><path fill="#ffffff" d="M 8.015625 22.683594 L 25.914062 22.683594 C 25.914062 22.683594 24.617188 23.984375 24.972656 24.554688 L 9.003906 24.648438 C 9.003906 24.648438 8.878906 23.523438 8.015625 22.683594 Z M 8.015625 22.683594 " fill-opacity="1" fill-rule="evenodd"/><path fill="#ffffff" d="M 9.082031 24.996094 L 24.886719 24.996094 L 24.886719 25.769531 L 28.160156 25.769531 L 28.160156 25.679688 L 28.539062 25.679688 L 28.539062 26.691406 L 28.160156 26.691406 L 28.160156 26.605469 L 24.886719 26.605469 L 24.886719 32.71875 L 23.574219 32.71875 L 23.574219 33.296875 L 21.960938 33.296875 L 21.960938 32.71875 L 11.925781 32.71875 L 11.925781 33.296875 L 10.3125 33.296875 L 10.3125 32.71875 L 9.082031 32.71875 L 9.082031 26.605469 L 5.761719 26.605469 L 5.761719 26.691406 L 5.382812 26.691406 L 5.382812 25.679688 L 5.761719 25.679688 L 5.761719 25.769531 L 9.082031 25.769531 Z M 29.050781 25.679688 L 28.671875 25.679688 L 28.671875 26.691406 L 29.050781 26.691406 Z M 29.828125 25.679688 L 29.449219 25.679688 L 29.449219 26.691406 L 29.828125 26.691406 Z M 30.316406 25.679688 L 29.933594 25.679688 L 29.933594 26.691406 L 30.316406 26.691406 Z M 31.148438 25.679688 L 30.769531 25.679688 L 30.769531 26.691406 L 31.148438 26.691406 Z M 31.640625 25.679688 L 31.257812 25.679688 L 31.257812 26.691406 L 31.640625 26.691406 Z M 30.679688 25.679688 L 30.421875 25.679688 L 30.421875 26.691406 L 30.679688 26.691406 Z M 29.390625 25.679688 L 29.132812 25.679688 L 29.132812 26.691406 L 29.390625 26.691406 Z M 4.871094 25.679688 L 5.25 25.679688 L 5.25 26.691406 L 4.871094 26.691406 Z M 4.09375 25.679688 L 4.472656 25.679688 L 4.472656 26.691406 L 4.09375 26.691406 Z M 3.605469 25.679688 L 3.988281 25.679688 L 3.988281 26.691406 L 3.605469 26.691406 Z M 2.773438 25.679688 L 3.152344 25.679688 L 3.152344 26.691406 L 2.773438 26.691406 Z M 2.28125 25.679688 L 2.664062 25.679688 L 2.664062 26.691406 L 2.28125 26.691406 Z M 3.242188 25.679688 L 3.5 25.679688 L 3.5 26.691406 L 3.242188 26.691406 Z M 4.53125 25.679688 L 4.789062 25.679688 L 4.789062 26.691406 L 4.53125 26.691406 Z M 14.355469 27.164062 L 16.707031 27.164062 L 16.707031 27.886719 L 15.132812 27.886719 L 15.132812 29.660156 L 16.648438 29.660156 L 16.648438 30.375 L 14.34375 30.375 Z M 19.625 27.164062 L 17.273438 27.164062 L 17.273438 27.886719 L 18.847656 27.886719 L 18.847656 29.660156 L 17.332031 29.660156 L 17.332031 30.375 L 19.636719 30.375 Z M 19.625 27.164062 " fill-opacity="1" fill-rule="evenodd"/><g fill="#ffffff" fill-opacity="1"><g transform="translate(42.661164, 16.599161)"><g><path d="M 7.234375 0 L 5.671875 0 L 5.09375 -1.734375 L 2.21875 -1.734375 L 1.640625 0 L 0.109375 0 L 2.71875 -7.546875 L 4.625 -7.546875 Z M 3.578125 -5.96875 L 2.609375 -2.984375 L 4.6875 -2.984375 L 3.71875 -5.96875 Z M 3.578125 -5.96875 "/></g></g></g><g fill="#ffffff" fill-opacity="1"><g transform="translate(50.00774, 16.599161)"><g><path d="M 0.984375 0 L 0.984375 -7.546875 L 4 -7.546875 C 4.78125 -7.546875 5.367188 -7.363281 5.765625 -7 C 6.171875 -6.644531 6.375 -6.148438 6.375 -5.515625 C 6.375 -5.054688 6.253906 -4.679688 6.015625 -4.390625 C 5.785156 -4.097656 5.441406 -3.875 4.984375 -3.71875 L 4.984375 -3.609375 C 5.222656 -3.503906 5.414062 -3.347656 5.5625 -3.140625 C 5.707031 -2.941406 5.84375 -2.644531 5.96875 -2.25 L 6.71875 0 L 5.1875 0 L 4.453125 -2.25 C 4.378906 -2.476562 4.296875 -2.65625 4.203125 -2.78125 C 4.109375 -2.90625 3.988281 -2.992188 3.84375 -3.046875 C 3.695312 -3.109375 3.503906 -3.140625 3.265625 -3.140625 L 2.46875 -3.140625 L 2.46875 0 Z M 3.828125 -4.328125 C 4.546875 -4.328125 4.90625 -4.660156 4.90625 -5.328125 C 4.90625 -6.015625 4.546875 -6.359375 3.828125 -6.359375 L 2.46875 -6.359375 L 2.46875 -4.328125 Z M 3.828125 -4.328125 "/></g></g></g><g fill="#ffffff" fill-opacity="1"><g transform="translate(57.055298, 16.599161)"><g><path d="M 0.984375 0 L 0.984375 -7.546875 L 2.46875 -7.546875 L 2.46875 -4.46875 L 2.640625 -4.46875 L 5.15625 -7.546875 L 6.671875 -7.546875 L 6.671875 -7.40625 L 3.90625 -3.984375 L 6.96875 -0.125 L 6.96875 0 L 5.28125 0 L 2.640625 -3.25 L 2.46875 -3.25 L 2.46875 0 Z M 0.984375 0 "/></g></g></g><g fill="#ffffff" fill-opacity="1"><g transform="translate(64.020367, 16.599161)"><g/></g></g><g fill="#ffffff" fill-opacity="1"><g transform="translate(66.510474, 16.599161)"><g><path d="M 4.109375 0.109375 C 3.421875 0.109375 2.8125 -0.03125 2.28125 -0.3125 C 1.75 -0.59375 1.332031 -1.019531 1.03125 -1.59375 C 0.738281 -2.175781 0.59375 -2.898438 0.59375 -3.765625 C 0.59375 -4.628906 0.738281 -5.347656 1.03125 -5.921875 C 1.332031 -6.503906 1.75 -6.9375 2.28125 -7.21875 C 2.8125 -7.507812 3.421875 -7.65625 4.109375 -7.65625 C 4.796875 -7.65625 5.398438 -7.515625 5.921875 -7.234375 C 6.453125 -6.953125 6.867188 -6.519531 7.171875 -5.9375 C 7.472656 -5.351562 7.625 -4.628906 7.625 -3.765625 C 7.625 -2.898438 7.472656 -2.175781 7.171875 -1.59375 C 6.867188 -1.019531 6.453125 -0.59375 5.921875 -0.3125 C 5.398438 -0.03125 4.796875 0.109375 4.109375 0.109375 Z M 4.109375 -1.1875 C 4.742188 -1.1875 5.226562 -1.390625 5.5625 -1.796875 C 5.90625 -2.210938 6.078125 -2.867188 6.078125 -3.765625 C 6.078125 -4.671875 5.90625 -5.328125 5.5625 -5.734375 C 5.226562 -6.148438 4.742188 -6.359375 4.109375 -6.359375 C 3.460938 -6.359375 2.96875 -6.148438 2.625 -5.734375 C 2.289062 -5.328125 2.125 -4.671875 2.125 -3.765625 C 2.125 -2.867188 2.289062 -2.210938 2.625 -1.796875 C 2.96875 -1.390625 3.460938 -1.1875 4.109375 -1.1875 Z M 4.109375 -1.1875 "/></g></g></g><g fill="#ffffff" fill-opacity="1"><g transform="translate(74.723172, 16.599161)"><g><path d="M 5.765625 -7.546875 L 5.765625 -6.296875 L 2.46875 -6.296875 L 2.46875 -4.296875 L 5.453125 -4.296875 L 5.453125 -3.0625 L 2.46875 -3.0625 L 2.46875 0 L 0.984375 0 L 0.984375 -7.546875 Z M 5.765625 -7.546875 "/></g></g></g><g fill="#ffffff" fill-opacity="1"><g transform="translate(80.816958, 16.599161)"><g/></g></g><g fill="#ffffff" fill-opacity="1"><g transform="translate(83.307064, 16.599161)"><g><path d="M 6.046875 -7.546875 L 6.046875 -6.28125 L 3.875 -6.28125 L 3.875 0 L 2.375 0 L 2.375 -6.28125 L 0.203125 -6.28125 L 0.203125 -7.546875 Z M 6.046875 -7.546875 "/></g></g></g><g fill="#ffffff" fill-opacity="1"><g transform="translate(89.555516, 16.599161)"><g><path d="M 0.984375 0 L 0.984375 -7.546875 L 4 -7.546875 C 4.78125 -7.546875 5.367188 -7.363281 5.765625 -7 C 6.171875 -6.644531 6.375 -6.148438 6.375 -5.515625 C 6.375 -5.054688 6.253906 -4.679688 6.015625 -4.390625 C 5.785156 -4.097656 5.441406 -3.875 4.984375 -3.71875 L 4.984375 -3.609375 C 5.222656 -3.503906 5.414062 -3.347656 5.5625 -3.140625 C 5.707031 -2.941406 5.84375 -2.644531 5.96875 -2.25 L 6.71875 0 L 5.1875 0 L 4.453125 -2.25 C 4.378906 -2.476562 4.296875 -2.65625 4.203125 -2.78125 C 4.109375 -2.90625 3.988281 -2.992188 3.84375 -3.046875 C 3.695312 -3.109375 3.503906 -3.140625 3.265625 -3.140625 L 2.46875 -3.140625 L 2.46875 0 Z M 3.828125 -4.328125 C 4.546875 -4.328125 4.90625 -4.660156 4.90625 -5.328125 C 4.90625 -6.015625 4.546875 -6.359375 3.828125 -6.359375 L 2.46875 -6.359375 L 2.46875 -4.328125 Z M 3.828125 -4.328125 "/></g></g></g><g fill="#ffffff" fill-opacity="1"><g transform="translate(96.603073, 16.599161)"><g><path d="M 2.46875 0 L 0.984375 0 L 0.984375 -7.546875 L 2.46875 -7.546875 Z M 2.46875 0 "/></g></g></g><g fill="#ffffff" fill-opacity="1"><g transform="translate(100.05725, 16.599161)"><g><path d="M 2.421875 0 L 0.984375 0 L 0.984375 -7.546875 L 2.6875 -7.546875 L 5.71875 -2.6875 L 5.84375 -2.703125 L 5.84375 -7.546875 L 7.28125 -7.546875 L 7.28125 0 L 5.75 0 L 2.546875 -5.1875 L 2.421875 -5.171875 Z M 2.421875 0 "/></g></g></g><g fill="#ffffff" fill-opacity="1"><g transform="translate(108.321503, 16.599161)"><g><path d="M 2.46875 0 L 0.984375 0 L 0.984375 -7.546875 L 2.46875 -7.546875 Z M 2.46875 0 "/></g></g></g><g fill="#ffffff" fill-opacity="1"><g transform="translate(111.77568, 16.599161)"><g><path d="M 6.046875 -7.546875 L 6.046875 -6.28125 L 3.875 -6.28125 L 3.875 0 L 2.375 0 L 2.375 -6.28125 L 0.203125 -6.28125 L 0.203125 -7.546875 Z M 6.046875 -7.546875 "/></g></g></g><g fill="#ffffff" fill-opacity="1"><g transform="translate(118.024131, 16.599161)"><g><path d="M 4.125 0 L 2.640625 0 L 2.640625 -2.953125 L 0.03125 -7.546875 L 1.640625 -7.546875 L 3.359375 -4.578125 L 3.484375 -4.578125 L 5.171875 -7.546875 L 6.734375 -7.546875 L 4.125 -2.953125 Z M 4.125 0 "/></g></g></g><g fill="#ffffff" fill-opacity="1"><g transform="translate(35.757125, 30.66166)"><g><path d="M 3.65625 0.109375 C 3.03125 0.109375 2.488281 -0.03125 2.03125 -0.3125 C 1.570312 -0.601562 1.21875 -1.035156 0.96875 -1.609375 C 0.71875 -2.191406 0.59375 -2.910156 0.59375 -3.765625 C 0.59375 -4.628906 0.738281 -5.347656 1.03125 -5.921875 C 1.332031 -6.503906 1.75 -6.9375 2.28125 -7.21875 C 2.8125 -7.507812 3.429688 -7.65625 4.140625 -7.65625 C 4.859375 -7.65625 5.472656 -7.519531 5.984375 -7.25 C 6.492188 -6.976562 6.851562 -6.578125 7.0625 -6.046875 L 5.96875 -5.390625 L 5.84375 -5.390625 C 5.6875 -5.734375 5.46875 -5.976562 5.1875 -6.125 C 4.90625 -6.28125 4.554688 -6.359375 4.140625 -6.359375 C 3.484375 -6.359375 2.984375 -6.148438 2.640625 -5.734375 C 2.296875 -5.328125 2.125 -4.671875 2.125 -3.765625 C 2.125 -2.859375 2.285156 -2.195312 2.609375 -1.78125 C 2.929688 -1.375 3.40625 -1.171875 4.03125 -1.171875 C 4.582031 -1.171875 4.984375 -1.289062 5.234375 -1.53125 C 5.492188 -1.769531 5.625 -2.132812 5.625 -2.625 L 5.625 -2.953125 L 3.84375 -2.953125 L 3.84375 -4.15625 L 7.109375 -4.15625 L 7.109375 0 L 5.6875 0 L 5.6875 -1.015625 L 5.578125 -1.03125 C 5.421875 -0.664062 5.1875 -0.382812 4.875 -0.1875 C 4.5625 0.0078125 4.15625 0.109375 3.65625 0.109375 Z M 3.65625 0.109375 "/></g></g></g><g fill="#ffffff" fill-opacity="1"><g transform="translate(43.619249, 30.66166)"><g><path d="M 4.109375 0.109375 C 3.421875 0.109375 2.8125 -0.03125 2.28125 -0.3125 C 1.75 -0.59375 1.332031 -1.019531 1.03125 -1.59375 C 0.738281 -2.175781 0.59375 -2.898438 0.59375 -3.765625 C 0.59375 -4.628906 0.738281 -5.347656 1.03125 -5.921875 C 1.332031 -6.503906 1.75 -6.9375 2.28125 -7.21875 C 2.8125 -7.507812 3.421875 -7.65625 4.109375 -7.65625 C 4.796875 -7.65625 5.398438 -7.515625 5.921875 -7.234375 C 6.453125 -6.953125 6.867188 -6.519531 7.171875 -5.9375 C 7.472656 -5.351562 7.625 -4.628906 7.625 -3.765625 C 7.625 -2.898438 7.472656 -2.175781 7.171875 -1.59375 C 6.867188 -1.019531 6.453125 -0.59375 5.921875 -0.3125 C 5.398438 -0.03125 4.796875 0.109375 4.109375 0.109375 Z M 4.109375 -1.1875 C 4.742188 -1.1875 5.226562 -1.390625 5.5625 -1.796875 C 5.90625 -2.210938 6.078125 -2.867188 6.078125 -3.765625 C 6.078125 -4.671875 5.90625 -5.328125 5.5625 -5.734375 C 5.226562 -6.148438 4.742188 -6.359375 4.109375 -6.359375 C 3.460938 -6.359375 2.96875 -6.148438 2.625 -5.734375 C 2.289062 -5.328125 2.125 -4.671875 2.125 -3.765625 C 2.125 -2.867188 2.289062 -2.210938 2.625 -1.796875 C 2.96875 -1.390625 3.460938 -1.1875 4.109375 -1.1875 Z M 4.109375 -1.1875 "/></g></g></g><g fill="#ffffff" fill-opacity="1"><g transform="translate(51.831947, 30.66166)"><g><path d="M 3.34375 0.109375 C 2.820312 0.109375 2.351562 0.046875 1.9375 -0.078125 C 1.53125 -0.210938 1.191406 -0.382812 0.921875 -0.59375 C 0.648438 -0.800781 0.441406 -1.03125 0.296875 -1.28125 L 1.125 -2.28125 L 1.25 -2.28125 C 1.476562 -1.945312 1.765625 -1.679688 2.109375 -1.484375 C 2.460938 -1.285156 2.875 -1.1875 3.34375 -1.1875 C 3.738281 -1.1875 4.035156 -1.269531 4.234375 -1.4375 C 4.441406 -1.601562 4.546875 -1.832031 4.546875 -2.125 C 4.546875 -2.300781 4.515625 -2.453125 4.453125 -2.578125 C 4.390625 -2.703125 4.28125 -2.804688 4.125 -2.890625 C 3.976562 -2.972656 3.773438 -3.046875 3.515625 -3.109375 L 2.546875 -3.328125 C 1.867188 -3.484375 1.363281 -3.738281 1.03125 -4.09375 C 0.695312 -4.457031 0.53125 -4.925781 0.53125 -5.5 C 0.53125 -5.925781 0.632812 -6.300781 0.84375 -6.625 C 1.0625 -6.945312 1.375 -7.195312 1.78125 -7.375 C 2.1875 -7.5625 2.675781 -7.65625 3.25 -7.65625 C 3.820312 -7.65625 4.316406 -7.578125 4.734375 -7.421875 C 5.148438 -7.265625 5.5 -7.03125 5.78125 -6.71875 L 5.046875 -5.703125 L 4.921875 -5.703125 C 4.703125 -5.929688 4.457031 -6.097656 4.1875 -6.203125 C 3.914062 -6.316406 3.601562 -6.375 3.25 -6.375 C 2.832031 -6.375 2.515625 -6.300781 2.296875 -6.15625 C 2.085938 -6.007812 1.984375 -5.8125 1.984375 -5.5625 C 1.984375 -5.320312 2.054688 -5.128906 2.203125 -4.984375 C 2.359375 -4.847656 2.617188 -4.738281 2.984375 -4.65625 L 3.984375 -4.453125 C 4.710938 -4.296875 5.242188 -4.03125 5.578125 -3.65625 C 5.910156 -3.289062 6.078125 -2.8125 6.078125 -2.21875 C 6.078125 -1.75 5.972656 -1.335938 5.765625 -0.984375 C 5.566406 -0.640625 5.257812 -0.367188 4.84375 -0.171875 C 4.4375 0.015625 3.9375 0.109375 3.34375 0.109375 Z M 3.34375 0.109375 "/></g></g></g><g fill="#ffffff" fill-opacity="1"><g transform="translate(58.30724, 30.66166)"><g><path d="M 3.890625 -7.546875 C 4.429688 -7.546875 4.894531 -7.445312 5.28125 -7.25 C 5.664062 -7.050781 5.953125 -6.769531 6.140625 -6.40625 C 6.335938 -6.050781 6.4375 -5.640625 6.4375 -5.171875 C 6.4375 -4.703125 6.335938 -4.289062 6.140625 -3.9375 C 5.953125 -3.582031 5.664062 -3.304688 5.28125 -3.109375 C 4.894531 -2.910156 4.429688 -2.8125 3.890625 -2.8125 L 2.46875 -2.8125 L 2.46875 0 L 0.984375 0 L 0.984375 -7.546875 Z M 3.703125 -3.984375 C 4.523438 -3.984375 4.9375 -4.378906 4.9375 -5.171875 C 4.9375 -5.960938 4.523438 -6.359375 3.703125 -6.359375 L 2.46875 -6.359375 L 2.46875 -3.984375 Z M 3.703125 -3.984375 "/></g></g></g><g fill="#ffffff" fill-opacity="1"><g transform="translate(65.194972, 30.66166)"><g><path d="M 2.46875 -3.3125 L 2.46875 -1.25 L 6.078125 -1.25 L 6.078125 0 L 0.984375 0 L 0.984375 -7.546875 L 5.984375 -7.546875 L 5.984375 -6.296875 L 2.46875 -6.296875 L 2.46875 -4.53125 L 5.546875 -4.53125 L 5.546875 -3.3125 Z M 2.46875 -3.3125 "/></g></g></g><g fill="#ffffff" fill-opacity="1"><g transform="translate(71.675426, 30.66166)"><g><path d="M 2.46875 -7.546875 L 2.46875 -1.25 L 5.859375 -1.25 L 5.859375 0 L 0.984375 0 L 0.984375 -7.546875 Z M 2.46875 -7.546875 "/></g></g></g><g fill="#ffffff" fill-opacity="1"><g transform="translate(77.779523, 30.66166)"><g/></g></g><g fill="#ffffff" fill-opacity="1"><g transform="translate(80.269629, 30.66166)"><g><path d="M 2.34375 0 L 0.984375 0 L 0.984375 -7.546875 L 2.921875 -7.546875 L 4.84375 -2 L 4.953125 -2 L 6.84375 -7.546875 L 8.75 -7.546875 L 8.75 0 L 7.328125 0 L 7.328125 -4.984375 L 7.203125 -5 L 5.46875 0 L 4.21875 0 L 2.46875 -5 L 2.34375 -4.984375 Z M 2.34375 0 "/></g></g></g><g fill="#ffffff" fill-opacity="1"><g transform="translate(89.998041, 30.66166)"><g><path d="M 2.46875 0 L 0.984375 0 L 0.984375 -7.546875 L 2.46875 -7.546875 Z M 2.46875 0 "/></g></g></g><g fill="#ffffff" fill-opacity="1"><g transform="translate(93.452218, 30.66166)"><g><path d="M 2.421875 0 L 0.984375 0 L 0.984375 -7.546875 L 2.6875 -7.546875 L 5.71875 -2.6875 L 5.84375 -2.703125 L 5.84375 -7.546875 L 7.28125 -7.546875 L 7.28125 0 L 5.75 0 L 2.546875 -5.1875 L 2.421875 -5.171875 Z M 2.421875 0 "/></g></g></g><g fill="#ffffff" fill-opacity="1"><g transform="translate(101.71647, 30.66166)"><g><path d="M 2.46875 0 L 0.984375 0 L 0.984375 -7.546875 L 2.46875 -7.546875 Z M 2.46875 0 "/></g></g></g><g fill="#ffffff" fill-opacity="1"><g transform="translate(105.170647, 30.66166)"><g><path d="M 3.34375 0.109375 C 2.820312 0.109375 2.351562 0.046875 1.9375 -0.078125 C 1.53125 -0.210938 1.191406 -0.382812 0.921875 -0.59375 C 0.648438 -0.800781 0.441406 -1.03125 0.296875 -1.28125 L 1.125 -2.28125 L 1.25 -2.28125 C 1.476562 -1.945312 1.765625 -1.679688 2.109375 -1.484375 C 2.460938 -1.285156 2.875 -1.1875 3.34375 -1.1875 C 3.738281 -1.1875 4.035156 -1.269531 4.234375 -1.4375 C 4.441406 -1.601562 4.546875 -1.832031 4.546875 -2.125 C 4.546875 -2.300781 4.515625 -2.453125 4.453125 -2.578125 C 4.390625 -2.703125 4.28125 -2.804688 4.125 -2.890625 C 3.976562 -2.972656 3.773438 -3.046875 3.515625 -3.109375 L 2.546875 -3.328125 C 1.867188 -3.484375 1.363281 -3.738281 1.03125 -4.09375 C 0.695312 -4.457031 0.53125 -4.925781 0.53125 -5.5 C 0.53125 -5.925781 0.632812 -6.300781 0.84375 -6.625 C 1.0625 -6.945312 1.375 -7.195312 1.78125 -7.375 C 2.1875 -7.5625 2.675781 -7.65625 3.25 -7.65625 C 3.820312 -7.65625 4.316406 -7.578125 4.734375 -7.421875 C 5.148438 -7.265625 5.5 -7.03125 5.78125 -6.71875 L 5.046875 -5.703125 L 4.921875 -5.703125 C 4.703125 -5.929688 4.457031 -6.097656 4.1875 -6.203125 C 3.914062 -6.316406 3.601562 -6.375 3.25 -6.375 C 2.832031 -6.375 2.515625 -6.300781 2.296875 -6.15625 C 2.085938 -6.007812 1.984375 -5.8125 1.984375 -5.5625 C 1.984375 -5.320312 2.054688 -5.128906 2.203125 -4.984375 C 2.359375 -4.847656 2.617188 -4.738281 2.984375 -4.65625 L 3.984375 -4.453125 C 4.710938 -4.296875 5.242188 -4.03125 5.578125 -3.65625 C 5.910156 -3.289062 6.078125 -2.8125 6.078125 -2.21875 C 6.078125 -1.75 5.972656 -1.335938 5.765625 -0.984375 C 5.566406 -0.640625 5.257812 -0.367188 4.84375 -0.171875 C 4.4375 0.015625 3.9375 0.109375 3.34375 0.109375 Z M 3.34375 0.109375 "/></g></g></g><g fill="#ffffff" fill-opacity="1"><g transform="translate(111.64594, 30.66166)"><g><path d="M 6.046875 -7.546875 L 6.046875 -6.28125 L 3.875 -6.28125 L 3.875 0 L 2.375 0 L 2.375 -6.28125 L 0.203125 -6.28125 L 0.203125 -7.546875 Z M 6.046875 -7.546875 "/></g></g></g><g fill="#ffffff" fill-opacity="1"><g transform="translate(117.894391, 30.66166)"><g><path d="M 0.984375 0 L 0.984375 -7.546875 L 4 -7.546875 C 4.78125 -7.546875 5.367188 -7.363281 5.765625 -7 C 6.171875 -6.644531 6.375 -6.148438 6.375 -5.515625 C 6.375 -5.054688 6.253906 -4.679688 6.015625 -4.390625 C 5.785156 -4.097656 5.441406 -3.875 4.984375 -3.71875 L 4.984375 -3.609375 C 5.222656 -3.503906 5.414062 -3.347656 5.5625 -3.140625 C 5.707031 -2.941406 5.84375 -2.644531 5.96875 -2.25 L 6.71875 0 L 5.1875 0 L 4.453125 -2.25 C 4.378906 -2.476562 4.296875 -2.65625 4.203125 -2.78125 C 4.109375 -2.90625 3.988281 -2.992188 3.84375 -3.046875 C 3.695312 -3.109375 3.503906 -3.140625 3.265625 -3.140625 L 2.46875 -3.140625 L 2.46875 0 Z M 3.828125 -4.328125 C 4.546875 -4.328125 4.90625 -4.660156 4.90625 -5.328125 C 4.90625 -6.015625 4.546875 -6.359375 3.828125 -6.359375 L 2.46875 -6.359375 L 2.46875 -4.328125 Z M 3.828125 -4.328125 "/></g></g></g><g fill="#ffffff" fill-opacity="1"><g transform="translate(124.941949, 30.66166)"><g><path d="M 4.125 0 L 2.640625 0 L 2.640625 -2.953125 L 0.03125 -7.546875 L 1.640625 -7.546875 L 3.359375 -4.578125 L 3.484375 -4.578125 L 5.171875 -7.546875 L 6.734375 -7.546875 L 4.125 -2.953125 Z M 4.125 0 "/></g></g></g></svg>